<?xml version="1.0" encoding="UTF-8" standalone="no"?>
<!-- Uploaded to: SVG Repo, www.svgrepo.com, Generator: SVG Repo Mixer Tools -->

<svg
   width="621.87634"
   height="643.71643"
   viewBox="0 0 398.00086 411.97852"
   version="1.1"
   id="svg1162"
   xmlns="http://www.w3.org/2000/svg"
   xmlns:svg="http://www.w3.org/2000/svg">
  <defs
     id="defs1166" />
  <path
     fill="#000000"
     d="M 206.09085,3.4332275e-5 C 194.20885,-0.00696567 182.21585,1.0180343 170.23385,3.1300343 85.026847,18.156034 18.156847,85.026034 3.1308469,170.23303 c -15.0219999,85.207 24.9450001,170.917 99.8750031,214.177 32.782,18.927 69.254,27.996 105.463,27.553 46.555,-0.57 92.675,-16.865 129.957,-48.15 l -30.855,-36.768 c -50.95,42.75 -122.968,49.05 -180.566,15.797 -57.597003,-33.254 -88.152003,-98.777 -76.603003,-164.274 11.55,-65.497 62.672003,-116.619996 128.170003,-128.167996 51.656,-9.108 103.323,7.98 139.17,43.862 l -47.741,47.737996 h 128 V 14.000034 l -46.34,46.342 c -38.418,-38.38 -90.83,-60.31199967 -145.57,-60.341999667725 z"
     id="path1160"
     style="fill:#ffffff" />
</svg>
