<?xml version="1.0" encoding="UTF-8" standalone="no"?>
<!-- Generator: Adobe Illustrator 24.0.3, SVG Export Plug-In . SVG Version: 6.00 Build 0)  -->

<svg
   version="1.1"
   id="navigation"
   x="0px"
   y="0px"
   width="22"
   height="22"
   viewBox="0 0 22 22"
   xml:space="preserve"
   preserveAspectRatio="none"
   sodipodi:docname="roblox_icons.svg"
   xmlns:inkscape="http://www.inkscape.org/namespaces/inkscape"
   xmlns:sodipodi="http://sodipodi.sourceforge.net/DTD/sodipodi-0.dtd"
   xmlns="http://www.w3.org/2000/svg"
   xmlns:svg="http://www.w3.org/2000/svg"><defs
   id="defs293" /><sodipodi:namedview
   id="namedview291"
   pagecolor="#ffffff"
   bordercolor="#000000"
   borderopacity="0.25"
   inkscape:showpageshadow="2"
   inkscape:pageopacity="0.0"
   inkscape:pagecheckerboard="0"
   inkscape:deskcolor="#d1d1d1"
   showgrid="false" />
<style
   type="text/css"
   id="style2">
	.st0{fill:#FFFFFF;}
	.st1{fill:#BDBEBE;}
</style>




<g
   id="search-hover"
   transform="translate(-31,-115)">
	<g
   id="g56">
		<path
   class="st0"
   d="m 40,133 c -5,0 -9,-4 -9,-9 0,-5 4,-9 9,-9 5,0 9,4 9,9 0,5 -4,9 -9,9 z m 0,-16 c -3.9,0 -7,3.1 -7,7 0,3.9 3.1,7 7,7 3.9,0 7,-3.1 7,-7 0,-3.9 -3.1,-7 -7,-7 z"
   id="path54" />
	</g>
	<g
   id="g60">
		<path
   class="st0"
   d="m 52,137 c -0.3,0 -0.5,-0.1 -0.7,-0.3 l -6,-6 c -0.4,-0.4 -0.4,-1 0,-1.4 0.4,-0.4 1,-0.4 1.4,0 l 6,6 c 0.4,0.4 0.4,1 0,1.4 -0.2,0.2 -0.4,0.3 -0.7,0.3 z"
   id="path58" />
	</g>
	<g
   id="g64">
		<path
   class="st0"
   d="m 44,125 c -0.6,0 -1,-0.4 -1,-1 0,-1.7 -1.3,-3 -3,-3 -0.6,0 -1,-0.4 -1,-1 0,-0.6 0.4,-1 1,-1 2.8,0 5,2.2 5,5 0,0.6 -0.4,1 -1,1 z"
   id="path62" />
	</g>
</g>

































</svg>
