<?xml version="1.0" encoding="UTF-8" standalone="no"?>
<!-- Generator: Adobe Illustrator 24.0.3, SVG Export Plug-In . SVG Version: 6.00 Build 0)  -->

<svg
   version="1.1"
   id="navigation"
   x="0px"
   y="0px"
   width="24"
   height="24"
   viewBox="0 0 24 24"
   xml:space="preserve"
   preserveAspectRatio="none"
   sodipodi:docname="roblox_icons.svg"
   xmlns:inkscape="http://www.inkscape.org/namespaces/inkscape"
   xmlns:sodipodi="http://sodipodi.sourceforge.net/DTD/sodipodi-0.dtd"
   xmlns="http://www.w3.org/2000/svg"
   xmlns:svg="http://www.w3.org/2000/svg"><defs
   id="defs293" /><sodipodi:namedview
   id="namedview291"
   pagecolor="#ffffff"
   bordercolor="#000000"
   borderopacity="0.25"
   inkscape:showpageshadow="2"
   inkscape:pageopacity="0.0"
   inkscape:pagecheckerboard="0"
   inkscape:deskcolor="#d1d1d1"
   showgrid="false" />
<style
   type="text/css"
   id="style2">
	.st0{fill:#FFFFFF;}
	.st1{fill:#BDBEBE;}
</style>







<g
   id="settings_1_"
   transform="translate(-2,-86)">
	<g
   id="g85">
		<path
   class="st0"
   d="m 16,110 h -4 c -0.6,0 -1,-0.4 -1,-1 v -1.5 c -0.6,-0.2 -1.1,-0.4 -1.6,-0.7 l -0.9,0.9 c -0.4,0.4 -1,0.4 -1.4,0 L 4.2,105 c -0.4,-0.4 -0.4,-1 0,-1.4 l 0.9,-0.9 C 4.8,102.2 4.6,101.6 4.4,101.1 H 3 c -0.6,0 -1,-0.4 -1,-1 v -4 c 0,-0.6 0.4,-1 1,-1 H 4.5 C 4.7,94.5 4.9,94 5.2,93.5 L 4.3,92.6 c -0.4,-0.4 -0.4,-1 0,-1.4 L 7,88.2 C 7.2,88 7.4,87.9 7.7,87.9 v 0 c 0.3,0 0.5,0.1 0.7,0.3 l 0.9,0.9 c 0.5,-0.3 1.1,-0.5 1.6,-0.7 V 87 c 0,-0.6 0.4,-1 1,-1 h 4 c 0.6,0 1,0.4 1,1 v 1.5 c 0.6,0.2 1.1,0.4 1.6,0.7 l 0.9,-0.9 c 0.4,-0.4 1,-0.4 1.4,0 l 2.8,2.8 c 0.4,0.4 0.4,1 0,1.4 l -0.9,0.9 c 0.3,0.5 0.5,1.1 0.7,1.6 H 25 c 0.6,0 1,0.4 1,1 v 4 c 0,0.6 -0.4,1 -1,1 h -1.5 c -0.2,0.6 -0.4,1.1 -0.7,1.6 l 0.9,0.9 c 0.4,0.4 0.4,1 0,1.4 l -2.8,2.8 c -0.2,0.2 -0.4,0.3 -0.7,0.3 v 0 c -0.3,0 -0.5,-0.1 -0.7,-0.3 l -0.9,-0.9 c -0.5,0.3 -1.1,0.5 -1.6,0.7 v 1.5 c 0,0.6 -0.4,1 -1,1 z m -3,-2 h 2 v -1.2 c 0,-0.5 0.3,-0.9 0.8,-1 0.9,-0.2 1.7,-0.5 2.5,-1 0.4,-0.2 0.9,-0.2 1.2,0.1 l 0.8,0.8 1.4,-1.4 -0.8,-0.8 c -0.3,-0.3 -0.4,-0.8 -0.1,-1.2 0.5,-0.8 0.8,-1.6 1,-2.5 0.1,-0.5 0.5,-0.8 1,-0.8 H 24 v -2 h -1.2 c -0.5,0 -0.9,-0.3 -1,-0.8 -0.2,-0.9 -0.5,-1.7 -1,-2.5 -0.2,-0.4 -0.2,-0.9 0.1,-1.2 l 0.8,-0.8 -1.4,-1.4 -0.8,0.8 c -0.3,0.3 -0.8,0.4 -1.2,0.1 -0.8,-0.5 -1.6,-0.8 -2.5,-1 C 15.3,90.1 15,89.7 15,89.2 V 88 h -2 v 1.2 c 0,0.5 -0.3,0.9 -0.8,1 -0.9,0.2 -1.7,0.5 -2.5,1 -0.4,0.2 -0.9,0.2 -1.2,-0.1 l -0.8,-0.8 -1.4,1.4 0.8,0.8 c 0.3,0.3 0.4,0.8 0.1,1.2 -0.5,0.8 -0.8,1.6 -1,2.5 C 6.1,96.7 5.7,97 5.2,97 H 4 v 2 h 1.2 c 0.5,0 0.9,0.3 1,0.8 0.2,0.9 0.5,1.7 1,2.5 0.2,0.4 0.2,0.9 -0.1,1.2 l -0.8,0.8 1.4,1.4 0.8,-0.8 c 0.3,-0.3 0.8,-0.4 1.2,-0.1 0.8,0.5 1.6,0.8 2.5,1 0.5,0.1 0.8,0.5 0.8,1 z"
   id="path83" />
	</g>
	<g
   id="g89">
		<path
   class="st0"
   d="m 14,104 c -3.3,0 -6,-2.7 -6,-6 0,-3.3 2.7,-6 6,-6 3.3,0 6,2.7 6,6 0,3.3 -2.7,6 -6,6 z m 0,-10 c -2.2,0 -4,1.8 -4,4 0,2.2 1.8,4 4,4 2.2,0 4,-1.8 4,-4 0,-2.2 -1.8,-4 -4,-4 z"
   id="path87" />
	</g>
</g>






























</svg>
